<svg width="63" height="18" viewBox="0 0 63 18" fill="none" xmlns="http://www.w3.org/2000/svg">
<path d="M15.2357 11.0174L13.5628 11.8077C13.3313 11.9169 13.1935 12.1615 13.2175 12.4202L13.3951 14.2799C13.4331 14.6861 13.0757 15.0156 12.6805 14.9388L10.8678 14.5831C10.6163 14.5345 10.3628 14.6498 10.233 14.8741L9.29874 16.4852C9.09511 16.8369 8.61201 16.8915 8.33852 16.5923L7.08085 15.2259C6.90717 15.0358 6.63367 14.9792 6.39811 15.0823L4.70724 15.8302C4.33793 15.994 3.91671 15.7514 3.8668 15.3451L3.64321 13.4915C3.61127 13.2348 3.42362 13.0246 3.17408 12.97L1.37142 12.5678C0.978152 12.4808 0.778522 12.0321 0.974159 11.6763L1.8685 10.041C1.99227 9.81466 1.96233 9.53369 1.79264 9.33964L0.56891 7.94085C0.301406 7.63563 0.399224 7.15454 0.764547 6.98272L2.43745 6.19237C2.66902 6.08322 2.80676 5.83863 2.78281 5.5799L2.60514 3.72024C2.56721 3.31395 2.92455 2.98446 3.31981 3.06128L5.13246 3.41704C5.38399 3.46555 5.63752 3.35033 5.76728 3.12596L6.70155 1.51493C6.90517 1.16321 7.38828 1.10864 7.66177 1.4078L8.91944 2.77424C9.09312 2.96425 9.36661 3.02085 9.60217 2.91776L11.293 2.16985C11.6624 2.00612 12.0836 2.24869 12.1335 2.65498L12.3571 4.50857C12.389 4.76529 12.5767 4.97551 12.8262 5.03009L14.6289 5.43234C15.0221 5.51926 15.2218 5.968 15.0261 6.32376L14.1318 7.95904C14.008 8.18544 14.038 8.46641 14.2076 8.66046L15.4314 10.0592C15.6989 10.3645 15.6011 10.8456 15.2357 11.0174Z" fill="#FEB087"/>
<path d="M25.044 13V4.48H28.116C28.9 4.48 29.524 4.708 29.988 5.164C30.46 5.612 30.696 6.192 30.696 6.904C30.696 7.504 30.528 8 30.192 8.392C29.864 8.776 29.388 9.036 28.764 9.172L31.932 13H30.204L27.084 9.256H26.448V13H25.044ZM26.448 8.032H27.948C28.364 8.032 28.692 7.936 28.932 7.744C29.172 7.544 29.292 7.264 29.292 6.904C29.292 6.544 29.172 6.268 28.932 6.076C28.692 5.876 28.364 5.776 27.948 5.776H26.448V8.032ZM32.7784 13V4.48H37.9024V5.824H34.1824V8.008H37.1824V9.352H34.1824V11.656H37.9024V13H32.7784ZM43.158 13.144C41.934 13.144 40.894 12.72 40.038 11.872C39.182 11.016 38.754 9.972 38.754 8.74C38.754 7.508 39.182 6.468 40.038 5.62C40.894 4.764 41.934 4.336 43.158 4.336C43.982 4.336 44.73 4.532 45.402 4.924C46.074 5.308 46.606 5.832 46.998 6.496L45.786 7.192C45.17 6.192 44.294 5.692 43.158 5.692C42.318 5.692 41.61 5.988 41.034 6.58C40.458 7.172 40.17 7.892 40.17 8.74C40.17 9.588 40.458 10.308 41.034 10.9C41.61 11.492 42.318 11.788 43.158 11.788C44.294 11.788 45.17 11.288 45.786 10.288L46.998 10.984C46.606 11.648 46.074 12.176 45.402 12.568C44.73 12.952 43.982 13.144 43.158 13.144ZM47.2043 13L50.9243 4.48H52.1483L55.8683 13H54.4043L53.4323 10.768H49.6163L48.6562 13H47.2043ZM51.5243 6.376L50.1562 9.52H52.8923L51.5243 6.376ZM61.8019 5.284C62.3539 5.812 62.6299 6.472 62.6299 7.264C62.6299 8.056 62.3539 8.72 61.8019 9.256C61.2499 9.784 60.5419 10.048 59.6779 10.048H58.3699V13H56.9659V4.48H59.6779C60.5419 4.48 61.2499 4.748 61.8019 5.284ZM60.8179 8.32C61.1059 8.04 61.2499 7.688 61.2499 7.264C61.2499 6.84 61.1059 6.492 60.8179 6.22C60.5379 5.94 60.1539 5.8 59.6659 5.8H58.3699V8.728H59.6659C60.1539 8.728 60.5379 8.592 60.8179 8.32Z" fill="#FD8F55"/>
</svg>
